<svg width="299" height="489" viewBox="0 0 299 489" fill="none" xmlns="http://www.w3.org/2000/svg">
<path d="M191.259 12.7588C191.259 12.7588 198.339 13.3171 198.948 23.112C199.557 32.9069 199.608 61.3274 186.311 63.0784C173.014 64.8293 182.581 16.3875 182.581 16.3875L191.259 12.7588Z" fill="#1C2226"/>
<path d="M145.076 21.5387C145.076 21.5387 139.696 36.5356 150.43 39.2762C161.189 42.0167 159.185 20.27 159.185 20.27L145.076 21.5387Z" fill="#1C2226"/>
<path d="M206.231 115.732L239.498 162.626L237.646 158.236L252.998 227.055L270.101 223.857L259.519 154.151C259.291 152.628 258.707 151.258 257.895 150.091L257.667 149.761L224.4 102.867L206.231 115.732Z" fill="#FCC9A7"/>
<path d="M265.736 248.167C274.491 245.553 279.439 236.317 276.825 227.587C274.212 218.833 264.975 213.885 256.246 216.498C247.491 219.112 242.543 228.349 245.157 237.078C247.77 245.807 256.982 250.781 265.736 248.167Z" fill="#FCC9A7"/>
<path d="M134.215 114.134L113.179 178.435L124.471 170.772L55.9573 168.919L54.8661 186.302L123.075 193.026C128.15 193.534 132.718 190.387 134.241 185.743L134.367 185.363L155.404 121.061L134.215 114.134Z" fill="#FCC9A7"/>
<path d="M137.945 443.025L127.643 471.42L112.57 457.87L122.187 435.108L137.945 443.025Z" fill="#FCC9A7"/>
<path d="M133.606 464.848C133.606 463.452 132.414 462.539 131.221 463.046C128.886 464.036 125.004 464.899 120.411 462.844C115.615 460.687 114.727 457.159 114.727 454.825C114.727 453.607 113.864 452.693 112.748 452.846L77.6533 457.895C75.5218 458.2 73.5171 459.443 72.0961 461.346C70.7512 463.123 71.3855 465.736 73.2633 466.295L125.664 482.23C127.719 482.865 129.952 481.368 130.561 478.982L133.53 467.259C133.581 467.056 133.606 466.853 133.606 466.675V464.848Z" fill="#1F252A"/>
<path d="M274.973 423.74L286.392 446.096L273.095 457.464L258.733 430.642L274.973 423.74Z" fill="#FCC9A7"/>
<path d="M288.777 441.173C287.711 440.285 286.24 440.589 285.859 441.833C285.098 444.269 283.271 447.77 278.703 449.953C273.958 452.211 270.685 450.587 268.908 449.09C267.969 448.303 266.701 448.379 266.117 449.318L247.238 479.338C246.096 481.165 245.74 483.474 246.273 485.783C246.755 487.965 249.141 489.158 250.816 488.092L296.897 458.454C298.699 457.286 299.029 454.622 297.608 452.617L290.579 442.772C290.452 442.619 290.325 442.467 290.173 442.34L288.777 441.173Z" fill="#1F252A"/>
<path d="M149.593 214.037L194.66 339.062L258.454 444.776L286.899 430.718L230.185 325.334L199.075 219.924L149.593 214.037Z" fill="#092330"/>
<path d="M219.223 215.889C219.223 215.889 227.749 232.003 214.503 257.759L173.37 336.245L142.031 455.205L110.895 444.345L140.686 324.04L172.887 230.176L149.567 214.062L219.223 215.889Z" fill="#0C2C40"/>
<path d="M180.424 76.9841L215.518 84.1908C219.654 85.0282 223.309 87.4135 225.77 90.8391L248.1 121.949L218.259 141.463L229.018 226.649C229.018 226.649 216.863 263.849 142.716 234.185C142.716 234.185 149.111 163.591 144.822 117.61L147.005 87.3373L180.424 76.9841Z" fill="#DF945B"/>
<path d="M146.979 87.3119L141.143 89.4434C136.321 91.1944 132.566 95.0769 130.967 99.9743L118.812 137.048L154.541 143.645L146.979 87.3119Z" fill="#DF945B"/>
<path d="M33.1701 172.65C33.1701 181.785 40.5798 189.194 49.7149 189.194C58.8501 189.194 66.2344 181.785 66.2344 172.65C66.2344 163.514 58.8247 156.13 49.7149 156.13C40.5798 156.13 33.1701 163.514 33.1701 172.65Z" fill="#FCC9A7"/>
<path d="M170.502 87.7179L174.486 89.9256C182.226 89.2912 189.508 87.6418 188.874 79.9023L187.021 57.2166L158.982 59.5258L160.834 82.2115C161.468 89.951 162.763 88.3523 170.502 87.7179Z" fill="#FCC9A7"/>
<path d="M187.402 59.9572C187.402 59.9572 183.545 76.7558 169.436 76.1721C157.104 75.6392 158.271 57.2166 158.271 57.2166L187.402 59.9572Z" fill="#F4BE9A"/>
<path d="M171.847 70.2088L174.232 69.9551C186.159 68.6609 194.786 57.9525 193.518 46.0006L192.046 32.3994C190.752 20.4729 180.043 11.8453 168.091 13.114L165.706 13.3678C153.78 14.6619 145.152 25.3704 146.421 37.3222L147.893 50.9235C149.187 62.8499 159.895 71.4776 171.847 70.2088Z" fill="#FCC9A7"/>
<path d="M216.203 135.525L207.17 124.868" stroke="#CE804A" stroke-width="0.7693" stroke-miterlimit="10" stroke-linecap="round" stroke-linejoin="round"/>
<path d="M146.167 142.098L144.797 120.097" stroke="#CE804A" stroke-width="0.7693" stroke-miterlimit="10" stroke-linecap="round" stroke-linejoin="round"/>
<path d="M170.502 87.7179L188.316 76.9588C195.928 73.7868 200.775 81.1457 200.775 81.1457L179.561 101.954L170.502 87.7179Z" fill="#EDA472"/>
<path d="M170.502 87.7179L161.875 101.065L153.247 85.358C153.247 85.358 156.647 80.0038 161.291 81.2472L170.502 87.7179Z" fill="#EDA472"/>
<path d="M124.014 173.335H16.1939C14.3922 173.335 12.9459 171.888 12.9459 170.087C12.9459 168.285 14.3922 166.839 16.1939 166.839H124.014C125.816 166.839 127.262 168.285 127.262 170.087C127.262 171.863 125.816 173.335 124.014 173.335Z" fill="#D1D1D1"/>
<path d="M12.9459 169.249L0.0551224 106.623C-0.274757 105.075 0.917969 103.603 2.51662 103.603H68.1121C69.3048 103.603 70.3451 104.44 70.5735 105.633L83.2866 169.275H12.9459V169.249Z" fill="#D1D1D1"/>
<path d="M7.33787 108.374L19.3658 165.189H78.8459L66.818 108.374H7.33787Z" fill="#EFEFEF"/>
<path d="M190.625 42.7526H183.342L181.921 34.7593C181.921 34.7593 174.309 30.6739 175.78 22.7821C175.78 22.7821 143.731 34.2772 138.732 21.4879C132.135 4.61324 156.064 0.426331 175.78 0.908465C195.497 1.36522 194.076 26.5377 194.076 26.5377L190.625 42.7526Z" fill="#1C2226"/>
<path d="M186.362 41.1539C186.819 45.417 190.65 48.4875 194.913 48.0307C199.176 47.574 202.247 43.7422 201.79 39.4791C201.333 35.2161 197.502 32.1457 193.239 32.6024C188.976 33.0592 185.905 36.8909 186.362 41.1539Z" fill="#FCC9A7"/>
</svg>
