<svg width="16" height="15" viewBox="0 0 16 15" fill="none" xmlns="http://www.w3.org/2000/svg">
<path d="M14.9747 13.9417L11.2472 10.2141C12.263 8.97176 12.7624 7.38649 12.6422 5.78623C12.5219 4.18596 11.7912 2.69312 10.6012 1.6165C9.41114 0.539881 7.85282 -0.0381557 6.24854 0.00195626C4.64427 0.0420682 3.11678 0.697259 1.98203 1.83201C0.847284 2.96676 0.192093 4.49424 0.151981 6.09852C0.111869 7.7028 0.689905 9.26112 1.76653 10.4512C2.84315 11.6412 4.33598 12.3719 5.93625 12.4921C7.53652 12.6124 9.12178 12.1129 10.3641 11.0971L14.0917 14.8247C14.2095 14.9385 14.3672 15.0014 14.531 15C14.6947 14.9986 14.8513 14.9329 14.9671 14.8171C15.0829 14.7013 15.1486 14.5447 15.15 14.3809C15.1514 14.2172 15.0885 14.0595 14.9747 13.9417ZM6.41488 11.2608C5.42679 11.2608 4.46088 10.9677 3.63931 10.4188C2.81774 9.86984 2.1774 9.08958 1.79928 8.1767C1.42115 7.26382 1.32221 6.25932 1.51498 5.29021C1.70775 4.3211 2.18356 3.43091 2.88225 2.73223C3.58094 2.03354 4.47112 1.55772 5.44023 1.36496C6.40934 1.17219 7.41385 1.27112 8.32673 1.64925C9.23961 2.02738 10.0199 2.66772 10.5688 3.48929C11.1178 4.31086 11.4108 5.27676 11.4108 6.26486C11.4093 7.58939 10.8825 8.85926 9.94587 9.79585C9.00928 10.7324 7.73942 11.2593 6.41488 11.2608Z" fill="white"/>
</svg>
